<svg width="26" height="26" viewBox="0 0 26 26" fill="none" xmlns="http://www.w3.org/2000/svg">
<path d="M5.63164 0.116798C4.48398 0.507812 3.70703 1.54883 3.70703 2.69649C3.70703 3.12813 3.84414 3.4125 4.14883 3.59023C4.77852 3.95586 5.58594 3.52422 5.58594 2.82344C5.58594 2.57969 5.80937 2.17852 6.02773 2.03125L6.21562 1.9043H14.8535H23.4914L23.6996 2.04141C23.8266 2.12266 23.9484 2.26484 24.0145 2.40195L24.1211 2.62539L24.1109 11.2074L24.0957 19.7844L23.9688 19.9723C23.8215 20.1906 23.4203 20.4141 23.1766 20.4141C22.4758 20.4141 22.0441 21.2215 22.4098 21.8512C22.5875 22.1559 22.8719 22.293 23.3035 22.293C24.4512 22.293 25.4922 21.516 25.8832 20.3684L25.9949 20.0332L26 11.1668C26 3.15859 25.9898 2.275 25.9187 2.02617C25.6344 1.08164 24.9184 0.365625 23.9738 0.0812511C23.725 0.0101566 22.8414 0 14.8332 0L5.9668 0.00507927L5.63164 0.116798Z" fill="white"/>
<path d="M2.12759 4.69726C1.23892 4.91562 0.492434 5.56562 0.147122 6.43398L0.0252465 6.72851L0.0100122 15.2039C-0.00522221 24.568 -0.0255347 23.8723 0.3147 24.5476C0.517825 24.9488 1.05103 25.482 1.4522 25.6851C2.12759 26.0254 1.43189 26.0051 10.7959 25.9898L19.2713 25.9746L19.5659 25.8527C20.226 25.5887 20.81 25.0504 21.0995 24.441C21.3889 23.8215 21.3788 24.243 21.3788 15.3562C21.3788 9.73984 21.3635 7.08398 21.3229 6.87577C21.135 5.82968 20.1702 4.86484 19.1241 4.67694C18.9159 4.63632 16.2702 4.62108 10.6182 4.62616C3.88462 4.63124 2.36118 4.6414 2.12759 4.69726ZM18.992 6.65234C19.1393 6.73866 19.2612 6.86054 19.3475 7.0078L19.4745 7.23632V15.2851C19.4745 19.7133 19.4592 23.3949 19.4338 23.4711C19.378 23.6844 19.1139 23.9535 18.8752 24.0449C18.6823 24.116 17.8647 24.1211 10.5827 24.1109L2.50845 24.0957L2.30025 23.9586C2.17837 23.8773 2.05142 23.7351 1.9854 23.6031L1.87876 23.3797V15.3309C1.87876 7.63749 1.88384 7.27695 1.97525 7.08398C2.07681 6.85546 2.33072 6.61679 2.50337 6.57616C2.56431 6.56601 2.66079 6.5457 2.71665 6.53046C2.77251 6.52031 6.40845 6.51523 10.7909 6.52031L18.7635 6.52538L18.992 6.65234Z" fill="white"/>
</svg>
