<svg width="147" height="40" viewBox="0 0 147 40" fill="none" xmlns="http://www.w3.org/2000/svg">
<rect width="40" height="40" rx="10" fill="#0b2f45"/>
<path d="M60.2825 18.0994C60.1641 17.7159 60.0008 17.3726 59.7924 17.0696C59.5888 16.7618 59.3426 16.4991 59.0538 16.2812C58.7697 16.0634 58.443 15.9001 58.0737 15.7912C57.7044 15.6776 57.3019 15.6207 56.8663 15.6207C56.085 15.6207 55.389 15.8172 54.7782 16.2102C54.1674 16.6032 53.6868 17.1809 53.3365 17.9432C52.9908 18.7008 52.818 19.6241 52.818 20.7131C52.818 21.8116 52.9908 22.742 53.3365 23.5043C53.6821 24.2666 54.1627 24.8466 54.7782 25.2443C55.3938 25.6373 56.1087 25.8338 56.9231 25.8338C57.6618 25.8338 58.301 25.6918 58.8407 25.4077C59.3852 25.1236 59.8043 24.7211 60.0978 24.2003C60.3914 23.6747 60.5382 23.0592 60.5382 22.3537L61.1348 22.446H57.1859V20.3864H63.0879V22.1335C63.0879 23.3788 62.8227 24.456 62.2924 25.3651C61.7621 26.2741 61.033 26.9749 60.1049 27.4673C59.1769 27.955 58.1116 28.1989 56.9089 28.1989C55.569 28.1989 54.3923 27.8982 53.3791 27.2969C52.3706 26.6908 51.5822 25.8314 51.014 24.7188C50.4506 23.6013 50.1689 22.2756 50.1689 20.7415C50.1689 19.5672 50.3346 18.5185 50.666 17.5952C51.0022 16.6719 51.4709 15.8883 52.0723 15.2443C52.6736 14.5956 53.3791 14.1032 54.1887 13.767C54.9984 13.4261 55.8791 13.2557 56.8308 13.2557C57.6357 13.2557 58.3862 13.3741 59.0822 13.6108C59.7782 13.8428 60.3961 14.1742 60.9359 14.6051C61.4804 15.036 61.9279 15.5473 62.2782 16.1392C62.6286 16.7311 62.8583 17.3845 62.9672 18.0994H60.2825ZM70.3517 28.2131C69.258 28.2131 68.3134 27.9858 67.5179 27.5312C66.7272 27.072 66.1188 26.4233 65.6926 25.5852C65.2665 24.7424 65.0534 23.7505 65.0534 22.6094C65.0534 21.4872 65.2665 20.5024 65.6926 19.6548C66.1235 18.8026 66.7248 18.1397 67.4966 17.6662C68.2684 17.188 69.1751 16.9489 70.2168 16.9489C70.8891 16.9489 71.5236 17.0578 72.1202 17.2756C72.7215 17.4886 73.2518 17.8201 73.7111 18.2699C74.1751 18.7197 74.5397 19.2926 74.8049 19.9886C75.07 20.6799 75.2026 21.5038 75.2026 22.4602V23.2486H66.2608V21.5156H72.7381C72.7334 21.0232 72.6268 20.5852 72.4185 20.2017C72.2102 19.8134 71.919 19.508 71.5449 19.2855C71.1756 19.063 70.7447 18.9517 70.2523 18.9517C69.7267 18.9517 69.2651 19.0795 68.8674 19.3352C68.4696 19.5862 68.1595 19.9176 67.937 20.3295C67.7192 20.7367 67.6079 21.1842 67.6032 21.6719V23.1847C67.6032 23.8191 67.7192 24.3636 67.9512 24.8182C68.1832 25.268 68.5075 25.6136 68.9242 25.8551C69.3408 26.0919 69.8285 26.2102 70.3873 26.2102C70.7613 26.2102 71.0998 26.1581 71.4029 26.054C71.7059 25.9451 71.9687 25.7865 72.1912 25.5781C72.4138 25.3698 72.5819 25.1117 72.6955 24.804L75.0961 25.0739C74.9445 25.7083 74.6557 26.2623 74.2296 26.7358C73.8082 27.2045 73.2684 27.5691 72.6103 27.8295C71.9521 28.0852 71.1993 28.2131 70.3517 28.2131ZM79.9487 21.608V28H77.3777V17.0909H79.835V18.9446H79.9629C80.2138 18.3338 80.6139 17.8485 81.1632 17.4886C81.7172 17.1288 82.4013 16.9489 83.2157 16.9489C83.9686 16.9489 84.6243 17.1098 85.1831 17.4318C85.7465 17.7538 86.1821 18.2202 86.4899 18.831C86.8024 19.4418 86.9563 20.1828 86.9515 21.054V28H84.3805V21.4517C84.3805 20.7225 84.1911 20.152 83.8123 19.7401C83.4383 19.3281 82.9198 19.1222 82.2569 19.1222C81.8071 19.1222 81.407 19.2216 81.0566 19.4205C80.711 19.6146 80.4387 19.8963 80.2399 20.2656C80.0458 20.6349 79.9487 21.0824 79.9487 21.608ZM94.3947 28.2131C93.301 28.2131 92.3564 27.9858 91.5609 27.5312C90.7702 27.072 90.1618 26.4233 89.7356 25.5852C89.3095 24.7424 89.0964 23.7505 89.0964 22.6094C89.0964 21.4872 89.3095 20.5024 89.7356 19.6548C90.1665 18.8026 90.7678 18.1397 91.5396 17.6662C92.3114 17.188 93.2181 16.9489 94.2598 16.9489C94.9321 16.9489 95.5666 17.0578 96.1632 17.2756C96.7645 17.4886 97.2948 17.8201 97.7541 18.2699C98.2181 18.7197 98.5827 19.2926 98.8478 19.9886C99.113 20.6799 99.2456 21.5038 99.2456 22.4602V23.2486H90.3038V21.5156H96.7811C96.7763 21.0232 96.6698 20.5852 96.4615 20.2017C96.2531 19.8134 95.9619 19.508 95.5879 19.2855C95.2186 19.063 94.7877 18.9517 94.2953 18.9517C93.7697 18.9517 93.3081 19.0795 92.9103 19.3352C92.5126 19.5862 92.2025 19.9176 91.9799 20.3295C91.7621 20.7367 91.6509 21.1842 91.6461 21.6719V23.1847C91.6461 23.8191 91.7621 24.3636 91.9941 24.8182C92.2261 25.268 92.5505 25.6136 92.9672 25.8551C93.3838 26.0919 93.8715 26.2102 94.4302 26.2102C94.8043 26.2102 95.1428 26.1581 95.4458 26.054C95.7489 25.9451 96.0117 25.7865 96.2342 25.5781C96.4567 25.3698 96.6248 25.1117 96.7385 24.804L99.139 25.0739C98.9875 25.7083 98.6987 26.2623 98.2726 26.7358C97.8511 27.2045 97.3114 27.5691 96.6532 27.8295C95.9951 28.0852 95.2422 28.2131 94.3947 28.2131ZM101.421 28V17.0909H103.914V18.9091H104.027C104.226 18.2794 104.567 17.794 105.05 17.4531C105.538 17.1075 106.094 16.9347 106.719 16.9347C106.861 16.9347 107.02 16.9418 107.195 16.956C107.375 16.9654 107.524 16.982 107.642 17.0057V19.3707C107.533 19.3329 107.36 19.2997 107.124 19.2713C106.892 19.2382 106.667 19.2216 106.449 19.2216C105.98 19.2216 105.559 19.3234 105.185 19.527C104.816 19.7259 104.524 20.0028 104.311 20.358C104.098 20.7131 103.992 21.1226 103.992 21.5866V28H101.421ZM112.294 28.2202C111.603 28.2202 110.98 28.0971 110.426 27.8509C109.877 27.5999 109.441 27.2306 109.119 26.7429C108.802 26.2552 108.644 25.6539 108.644 24.9389C108.644 24.3234 108.757 23.8144 108.985 23.4119C109.212 23.0095 109.522 22.6875 109.915 22.446C110.308 22.2045 110.751 22.0223 111.243 21.8991C111.74 21.7713 112.254 21.679 112.784 21.6222C113.423 21.5559 113.942 21.4967 114.34 21.4446C114.737 21.3878 115.026 21.3026 115.206 21.1889C115.391 21.0705 115.483 20.8883 115.483 20.642V20.5994C115.483 20.0644 115.325 19.6501 115.007 19.3565C114.69 19.063 114.233 18.9162 113.637 18.9162C113.007 18.9162 112.507 19.0535 112.138 19.3281C111.773 19.6027 111.527 19.9271 111.399 20.3011L108.999 19.9602C109.188 19.2973 109.501 18.7434 109.936 18.2983C110.372 17.8485 110.905 17.5123 111.534 17.2898C112.164 17.0625 112.86 16.9489 113.622 16.9489C114.148 16.9489 114.671 17.0104 115.192 17.1335C115.713 17.2566 116.189 17.4602 116.619 17.7443C117.05 18.0237 117.396 18.4048 117.656 18.8878C117.922 19.3707 118.054 19.9744 118.054 20.6989V28H115.583V26.5014H115.497C115.341 26.8045 115.121 27.0885 114.837 27.3537C114.557 27.6141 114.205 27.8248 113.779 27.9858C113.357 28.142 112.862 28.2202 112.294 28.2202ZM112.962 26.331C113.478 26.331 113.925 26.2292 114.304 26.0256C114.683 25.8172 114.974 25.5426 115.178 25.2017C115.386 24.8608 115.49 24.4891 115.49 24.0866V22.8011C115.41 22.8674 115.272 22.929 115.078 22.9858C114.889 23.0426 114.676 23.0923 114.439 23.1349C114.202 23.1776 113.968 23.2154 113.736 23.2486C113.504 23.2817 113.303 23.3101 113.132 23.3338C112.749 23.3859 112.405 23.4711 112.102 23.5895C111.799 23.7079 111.56 23.8736 111.385 24.0866C111.21 24.295 111.122 24.5649 111.122 24.8963C111.122 25.3698 111.295 25.7273 111.641 25.9688C111.986 26.2102 112.427 26.331 112.962 26.331ZM126.087 17.0909V19.0795H119.816V17.0909H126.087ZM121.364 14.4773H123.935V24.7188C123.935 25.0644 123.987 25.3295 124.091 25.5142C124.2 25.6941 124.342 25.8172 124.517 25.8835C124.692 25.9498 124.887 25.983 125.1 25.983C125.261 25.983 125.407 25.9711 125.54 25.9474C125.677 25.9238 125.781 25.9025 125.852 25.8835L126.286 27.8935C126.148 27.9408 125.952 27.9929 125.696 28.0497C125.445 28.1065 125.137 28.1397 124.773 28.1491C124.129 28.1681 123.549 28.071 123.033 27.858C122.517 27.6402 122.107 27.304 121.804 26.8494C121.506 26.3949 121.359 25.8267 121.364 25.1449V14.4773ZM132.878 28.2131C131.813 28.2131 130.89 27.9787 130.108 27.5099C129.327 27.0412 128.721 26.3854 128.29 25.5426C127.864 24.6998 127.651 23.715 127.651 22.5881C127.651 21.4612 127.864 20.474 128.29 19.6264C128.721 18.7789 129.327 18.1207 130.108 17.652C130.89 17.1832 131.813 16.9489 132.878 16.9489C133.944 16.9489 134.867 17.1832 135.648 17.652C136.43 18.1207 137.033 18.7789 137.459 19.6264C137.89 20.474 138.106 21.4612 138.106 22.5881C138.106 23.715 137.89 24.6998 137.459 25.5426C137.033 26.3854 136.43 27.0412 135.648 27.5099C134.867 27.9787 133.944 28.2131 132.878 28.2131ZM132.893 26.1534C133.47 26.1534 133.953 25.9948 134.341 25.6776C134.73 25.3556 135.019 24.9247 135.208 24.3849C135.402 23.8452 135.499 23.2438 135.499 22.581C135.499 21.9134 135.402 21.3097 135.208 20.7699C135.019 20.2254 134.73 19.7921 134.341 19.4702C133.953 19.1482 133.47 18.9872 132.893 18.9872C132.301 18.9872 131.808 19.1482 131.415 19.4702C131.027 19.7921 130.736 20.2254 130.542 20.7699C130.352 21.3097 130.258 21.9134 130.258 22.581C130.258 23.2438 130.352 23.8452 130.542 24.3849C130.736 24.9247 131.027 25.3556 131.415 25.6776C131.808 25.9948 132.301 26.1534 132.893 26.1534ZM140.288 28V17.0909H142.781V18.9091H142.894C143.093 18.2794 143.434 17.794 143.917 17.4531C144.405 17.1075 144.961 16.9347 145.586 16.9347C145.728 16.9347 145.887 16.9418 146.062 16.956C146.242 16.9654 146.391 16.982 146.509 17.0057V19.3707C146.401 19.3329 146.228 19.2997 145.991 19.2713C145.759 19.2382 145.534 19.2216 145.316 19.2216C144.847 19.2216 144.426 19.3234 144.052 19.527C143.683 19.7259 143.392 20.0028 143.178 20.358C142.965 20.7131 142.859 21.1226 142.859 21.5866V28H140.288Z" fill="black"/>
<path d="M18.417 6.10547C16.8877 6.42715 15.5904 7.21289 14.6781 8.37305C14.1613 9.02695 13.9082 9.49629 13.6498 10.2715C13.365 11.11 13.3281 11.5371 13.3281 13.8416V15.9141H12.4263C11.7935 15.9141 11.4191 15.9404 11.1554 15.9984C9.47322 16.3834 8.17068 17.7598 7.90173 19.4473C7.82263 19.9166 7.82263 28.9975 7.90173 29.4668C8.17068 31.1543 9.47322 32.5307 11.1554 32.9156C11.4771 32.9895 11.9781 33 14.7256 33C17.7631 33 17.9318 32.9947 18.1164 32.8998C18.3642 32.7732 18.5224 32.6045 18.6279 32.3566C18.8388 31.8398 18.6226 31.2492 18.1164 30.9908C17.9318 30.8959 17.7683 30.8906 15.0842 30.8906C13.5232 30.8854 12.0888 30.8643 11.8937 30.8432C11.0025 30.7271 10.3064 30.1207 10.0849 29.277C9.96365 28.8182 9.96365 20.0959 10.0849 19.6371C10.3064 18.7934 11.0025 18.1869 11.8937 18.0709C12.3578 18.0129 27.0074 18.0129 27.4715 18.0709C28.1412 18.1605 28.7371 18.5455 29.064 19.1045C29.2908 19.4842 29.3594 19.8691 29.3594 20.6971C29.3594 21.5039 29.4068 21.7201 29.6388 21.968C30.0449 22.4057 30.8359 22.4057 31.242 21.968C31.4793 21.7148 31.5215 21.5092 31.5215 20.6232C31.5215 19.6898 31.4687 19.2732 31.2842 18.7459C30.8043 17.3643 29.6388 16.3254 28.2097 15.9984C27.9461 15.9404 27.5717 15.9141 26.9388 15.9141H26.0371V13.8891C26.0371 12.7711 26.0107 11.6742 25.9844 11.4475C25.7892 9.98672 25.1301 8.69473 24.0648 7.70332C23.1631 6.85957 22.0873 6.32168 20.8217 6.08437C20.2047 5.96836 19.034 5.97891 18.417 6.10547ZM20.8955 8.32031C22.4248 8.81074 23.4847 9.95508 23.7959 11.458C23.8592 11.7691 23.875 12.2596 23.875 13.8838V15.9141H19.6773H15.4849L15.506 13.7098C15.5271 11.2523 15.5271 11.2471 15.9121 10.4561C16.4342 9.40137 17.4519 8.58926 18.6543 8.26758C19.208 8.11992 20.3523 8.14629 20.8955 8.32031Z" fill="white"/>
<path d="M24.8506 22.8276C22.9838 23.1387 21.1117 24.3991 19.2765 26.5665C18.6437 27.3206 18.4961 27.637 18.5752 28.0958C18.6859 28.7655 20.6687 30.8643 22.0504 31.7713C22.9521 32.3725 23.9963 32.7997 24.8927 32.9473C25.3146 33.0159 26.3904 33.0159 26.8123 32.9473C28.1359 32.7311 29.4912 32.0297 30.8095 30.8749C31.7693 30.0364 32.9875 28.6178 33.1035 28.2118C33.2089 27.8215 33.1351 27.484 32.8609 27.1149C31.9908 25.9389 30.6988 24.6838 29.6547 23.9983C28.7529 23.3971 27.7088 22.97 26.8123 22.8223C26.4273 22.759 25.225 22.7643 24.8506 22.8276ZM26.749 25.0319C27.8722 25.3272 28.7476 25.8915 29.9552 27.1043C30.3507 27.5051 30.6777 27.8585 30.6777 27.8848C30.6777 27.9797 29.2275 29.393 28.8267 29.6936C27.7457 30.4899 26.8492 30.8379 25.8525 30.8379C24.8558 30.8379 23.9593 30.4899 22.8783 29.6936C22.4775 29.393 21.0273 27.9797 21.0273 27.8848C21.0273 27.7899 22.4775 26.3766 22.8783 26.076C23.6113 25.5381 24.2125 25.227 24.9297 25.0319C25.4043 24.9053 26.2638 24.9053 26.749 25.0319Z" fill="white"/>
<path d="M25.2672 25.96C24.9824 26.0496 24.6713 26.25 24.4287 26.4979C23.7115 27.2309 23.7115 28.5387 24.4287 29.2717C24.8453 29.6988 25.2988 29.8887 25.9053 29.8887C26.9336 29.8887 27.7035 29.2453 27.8881 28.2328C28.0726 27.2414 27.4767 26.2447 26.517 25.9547C26.2217 25.865 25.5625 25.865 25.2672 25.96Z" fill="white"/>
<path d="M13.3017 23.281C12.6531 23.6185 12.4949 24.457 12.9748 24.9738C13.3808 25.4115 14.1718 25.4115 14.5779 24.9738C15.0578 24.4623 14.8996 23.6185 14.2668 23.2916C14.0242 23.165 13.5285 23.1598 13.3017 23.281Z" fill="white"/>
<path d="M17.2568 23.281C16.6082 23.6185 16.45 24.457 16.9298 24.9738C17.3359 25.4115 18.1269 25.4115 18.533 24.9738C19.0129 24.4623 18.8547 23.6185 18.2218 23.2916C17.9793 23.165 17.4836 23.1598 17.2568 23.281Z" fill="white"/>
</svg>
