<svg width="40" height="40" viewBox="0 0 40 40" fill="none" xmlns="http://www.w3.org/2000/svg">
<rect width="40" height="40" rx="10" fill="#0b2f45"/>
<path d="M18.417 6.10547C16.8877 6.42715 15.5904 7.21289 14.6781 8.37305C14.1613 9.02695 13.9082 9.49629 13.6498 10.2715C13.365 11.11 13.3281 11.5371 13.3281 13.8416V15.9141H12.4263C11.7935 15.9141 11.4191 15.9404 11.1554 15.9984C9.47322 16.3834 8.17068 17.7598 7.90173 19.4473C7.82263 19.9166 7.82263 28.9975 7.90173 29.4668C8.17068 31.1543 9.47322 32.5307 11.1554 32.9156C11.4771 32.9895 11.9781 33 14.7256 33C17.7631 33 17.9318 32.9947 18.1164 32.8998C18.3642 32.7732 18.5224 32.6045 18.6279 32.3566C18.8388 31.8398 18.6226 31.2492 18.1164 30.9908C17.9318 30.8959 17.7683 30.8906 15.0842 30.8906C13.5232 30.8854 12.0888 30.8643 11.8937 30.8432C11.0025 30.7271 10.3064 30.1207 10.0849 29.277C9.96365 28.8182 9.96365 20.0959 10.0849 19.6371C10.3064 18.7934 11.0025 18.1869 11.8937 18.0709C12.3578 18.0129 27.0074 18.0129 27.4715 18.0709C28.1412 18.1605 28.7371 18.5455 29.064 19.1045C29.2908 19.4842 29.3594 19.8691 29.3594 20.6971C29.3594 21.5039 29.4068 21.7201 29.6388 21.968C30.0449 22.4057 30.8359 22.4057 31.242 21.968C31.4793 21.7148 31.5215 21.5092 31.5215 20.6232C31.5215 19.6898 31.4687 19.2732 31.2842 18.7459C30.8043 17.3643 29.6388 16.3254 28.2097 15.9984C27.9461 15.9404 27.5717 15.9141 26.9388 15.9141H26.0371V13.8891C26.0371 12.7711 26.0107 11.6742 25.9844 11.4475C25.7892 9.98672 25.1301 8.69473 24.0648 7.70332C23.1631 6.85957 22.0873 6.32168 20.8217 6.08438C20.2047 5.96836 19.034 5.97891 18.417 6.10547ZM20.8955 8.32031C22.4248 8.81074 23.4847 9.95508 23.7959 11.458C23.8592 11.7691 23.875 12.2596 23.875 13.8838V15.9141H19.6773H15.4849L15.506 13.7098C15.5271 11.2523 15.5271 11.2471 15.9121 10.4561C16.4342 9.40137 17.4519 8.58926 18.6543 8.26758C19.208 8.11992 20.3523 8.14629 20.8955 8.32031Z" fill="white"/>
<path d="M24.8506 22.8276C22.9838 23.1387 21.1117 24.3991 19.2765 26.5665C18.6437 27.3206 18.4961 27.637 18.5752 28.0958C18.6859 28.7655 20.6687 30.8643 22.0504 31.7713C22.9521 32.3725 23.9963 32.7997 24.8927 32.9473C25.3146 33.0159 26.3904 33.0159 26.8123 32.9473C28.1359 32.7311 29.4912 32.0297 30.8095 30.8749C31.7693 30.0364 32.9875 28.6178 33.1035 28.2118C33.2089 27.8215 33.1351 27.484 32.8609 27.1149C31.9908 25.9389 30.6988 24.6838 29.6547 23.9983C28.7529 23.3971 27.7088 22.97 26.8123 22.8223C26.4273 22.759 25.225 22.7643 24.8506 22.8276ZM26.749 25.0319C27.8722 25.3272 28.7476 25.8915 29.9552 27.1043C30.3507 27.5051 30.6777 27.8585 30.6777 27.8848C30.6777 27.9797 29.2275 29.393 28.8267 29.6936C27.7457 30.4899 26.8492 30.8379 25.8525 30.8379C24.8558 30.8379 23.9593 30.4899 22.8783 29.6936C22.4775 29.393 21.0273 27.9797 21.0273 27.8848C21.0273 27.7899 22.4775 26.3766 22.8783 26.076C23.6113 25.5381 24.2125 25.227 24.9297 25.0319C25.4043 24.9053 26.2638 24.9053 26.749 25.0319Z" fill="white"/>
<path d="M25.2672 25.96C24.9824 26.0496 24.6713 26.25 24.4287 26.4979C23.7115 27.2309 23.7115 28.5387 24.4287 29.2717C24.8453 29.6988 25.2988 29.8887 25.9053 29.8887C26.9336 29.8887 27.7035 29.2453 27.8881 28.2328C28.0726 27.2414 27.4767 26.2447 26.517 25.9547C26.2217 25.865 25.5625 25.865 25.2672 25.96Z" fill="white"/>
<path d="M13.3017 23.281C12.6531 23.6185 12.4949 24.457 12.9748 24.9738C13.3808 25.4115 14.1718 25.4115 14.5779 24.9738C15.0578 24.4623 14.8996 23.6185 14.2668 23.2916C14.0242 23.165 13.5285 23.1598 13.3017 23.281Z" fill="white"/>
<path d="M17.2568 23.281C16.6082 23.6185 16.45 24.457 16.9298 24.9738C17.3359 25.4115 18.1269 25.4115 18.533 24.9738C19.0129 24.4623 18.8547 23.6185 18.2218 23.2916C17.9793 23.165 17.4836 23.1598 17.2568 23.281Z" fill="white"/>
</svg>
