<svg width="28" height="26" viewBox="0 0 28 26" fill="none" xmlns="http://www.w3.org/2000/svg">
<path d="M10.8439 0.0951424C8.48683 0.394264 6.23917 1.41818 4.3798 3.04035C2.05011 5.07669 0.480579 8.09093 0.0868289 11.2835C-0.0280148 12.1809 -0.0280148 13.826 0.0813602 14.7119C0.688391 19.6359 3.93136 23.7719 8.41027 25.3365C12.6157 26.8034 17.3025 25.7967 20.5564 22.725C21.1579 22.1497 21.2618 22.0174 21.3275 21.7125C21.4259 21.2466 21.24 20.8267 20.8353 20.6081C20.365 20.3607 20.0587 20.4528 19.4626 21.0338C17.8712 22.5696 15.9189 23.5418 13.7532 23.8812C13.1243 23.979 11.5439 23.979 10.9095 23.8812C7.7212 23.3922 4.98683 21.4767 3.35167 18.5833C2.41105 16.9208 1.91339 15.0053 1.91339 13.0437C1.91339 8.78697 4.10636 5.07094 7.75949 3.1439C8.64542 2.6722 9.83214 2.28679 10.9095 2.12573C11.5493 2.02794 13.1845 2.02794 13.7806 2.12573C16.1048 2.50538 18.0298 3.5178 19.6704 5.2205C20.7806 6.36522 21.5845 7.67101 22.115 9.16087C22.3009 9.69584 22.6126 10.8636 22.5743 10.9038C22.5634 10.9153 21.8525 10.4206 20.9993 9.79939C19.3259 8.59714 19.1071 8.46484 18.8118 8.45908C18.5712 8.45908 18.1665 8.66617 18.0298 8.8675C17.8165 9.17813 17.8165 9.75912 18.0298 10.0582C18.09 10.1445 18.7626 10.6622 19.5282 11.2145C22.6728 13.4751 23.3782 13.9641 23.5642 13.9929C23.854 14.0389 24.2095 13.9353 24.379 13.7513C24.5212 13.6017 27.797 8.59139 27.9392 8.30377C28.0431 8.09669 28.0103 7.60773 27.8845 7.36613C27.6439 6.9232 27.0368 6.75638 26.5939 7.01524C26.3806 7.14754 26.3204 7.22808 25.0134 9.24716L24.4064 10.1848L24.3353 9.85116C24.204 9.22415 23.7829 8.0219 23.4329 7.27985C22.3829 5.03067 20.7368 3.1439 18.7025 1.85537C16.3618 0.371256 13.5673 -0.255753 10.8439 0.0951424Z" fill="white"/>
</svg>
